<svg viewBox="0 0 140 36" fill="none" xmlns="http://www.w3.org/2000/svg">
  <path
    d="M45.7325 0.00244141C24.2963 0.00244141 9.3254 16.6031 20.8672 34.1179C22.5161 36.6202 25.2125 36.6202 26.8609 34.1179L47.4075 2.92359C48.2584 1.63173 47.2793 0.00244141 45.7325 0.00244141Z"
    fill="#AB3192" />
  <path
    d="M20.112 5.59351C20.5917 5.32951 20.5872 4.63907 20.1014 4.38663C15.6828 2.08451 9.80626 0.402922 1.98919 0.00263999C0.444385 -0.0763101 -0.536206 1.63193 0.314645 2.92379L9.32501 16.6033C9.64282 17.0855 10.3775 16.9809 10.549 16.4298C12.0782 11.4997 15.6828 8.03141 20.112 5.59351Z"
    fill="#0066CC" />
  <path
    d="M67.7223 32.3831C67.3266 33.1761 66.355 33.6237 65.4539 33.6237C64.5573 33.6237 63.5601 33.1344 63.1533 32.3193L51.7578 9.48608H55.5595C56.17 9.48608 56.8669 9.90095 57.3029 10.6467L64.8047 25.8549C65.3483 26.8923 65.7098 28.4844 65.7098 28.4844C65.7098 28.4844 66.0629 26.8923 66.6065 25.8549L74.0202 10.8252C74.4436 9.96682 75.2025 9.48608 75.8602 9.48608H79.15L67.7223 32.3831ZM83.2408 0C81.7674 0 80.5731 1.19431 80.5731 2.66771C80.5731 4.14111 81.7674 5.33542 83.2408 5.33542C84.7142 5.33542 85.9085 4.14111 85.9085 2.66771C85.9085 1.19431 84.7142 0 83.2408 0ZM85.4348 9.48558V31.4292C85.4348 32.6411 84.4527 33.6232 83.2408 33.6232C82.0289 33.6232 81.0468 32.6411 81.0468 31.4292V11.6796C81.0468 10.4677 82.0289 9.48558 83.2408 9.48558H85.4348ZM108.814 2.66771C108.814 1.4558 109.796 0.473701 111.008 0.473701H113.202V31.8184C113.202 32.8151 112.438 33.6227 111.442 33.6227C110.445 33.6227 109.718 32.8085 109.637 31.8184L109.467 29.4715C109.44 29.1054 109.433 28.6911 109.433 28.6911C109.422 28.7595 109.258 29.199 109.235 29.2467C108.241 31.223 104.556 33.6232 100.898 33.6232C94.1017 33.6232 89.0952 28.1138 89.0952 21.3175C89.0952 14.5213 94.1012 9.01188 100.898 9.01188C104.445 9.01188 107.38 10.6638 108.6 12.898C108.63 12.9589 108.841 13.3863 108.852 13.4567C108.852 13.4567 108.814 13.0429 108.814 12.6758V2.66771V2.66771ZM101.149 12.896C96.9168 12.896 93.4852 16.6645 93.4852 21.313C93.4852 25.9615 96.9168 29.73 101.149 29.73C105.382 29.73 108.814 25.9615 108.814 21.313C108.814 16.6645 105.382 12.896 101.149 12.896ZM135.826 11.7027C135.978 10.4999 136.593 9.48558 137.805 9.48558H140V31.8189C140 32.8156 139.237 33.6232 138.24 33.6232C137.244 33.6232 136.517 32.809 136.436 31.8189L136.266 29.4725C136.239 29.1064 136.231 28.6916 136.231 28.6916C136.221 28.76 136.06 29.1934 136.034 29.2462C135.041 31.2225 131.355 33.6232 127.696 33.6232C120.9 33.6232 115.893 28.1138 115.893 21.3175C115.893 14.5213 120.899 9.01188 127.696 9.01188C131.242 9.01188 134.176 10.6628 135.397 12.896C135.397 12.896 135.638 13.3843 135.649 13.4567C135.649 13.4567 135.65 13.0464 135.698 12.6763L135.826 11.7027ZM127.947 12.896C123.715 12.896 120.283 16.6645 120.283 21.313C120.283 25.9615 123.715 29.73 127.947 29.73C132.18 29.73 135.611 25.9615 135.611 21.313C135.611 16.6645 132.18 12.896 127.947 12.896Z"
    fill="#012D6A" />
</svg>